<?xml version="1.0" encoding="UTF-8"?>
<svg width="475px" height="162px" viewBox="0 0 475 162" version="1.1" xmlns="http://www.w3.org/2000/svg" xmlns:xlink="http://www.w3.org/1999/xlink">
    <title>Logo</title>
    <g id="Logo" stroke="none" stroke-width="1" fill="none" fill-rule="evenodd">
        <text id="TailwindCSS-Mobile-U" font-family="InterV_Bold, Inter V" font-size="48" font-weight="bold" letter-spacing="-0.666666667" fill="#222222">
            <tspan x="126" y="49">TailwindCSS </tspan>
            <tspan x="126" y="108">Mobile Utilities</tspan>
        </text>
        <text id="Quickly-give-your-ap" font-family="InterV, Inter V" font-size="14" font-weight="normal" letter-spacing="-0.194444444" fill="#515151">
            <tspan x="34" y="148"> Quickly give your app a native feel using Tailwind Utility Classes. </tspan>
        </text>
        <g id="icon" transform="translate(18.000000, 11.000000)" fill-rule="nonzero">
            <path d="M0,40.5405405 L40.5405405,40.5405405 L40.5405405,45.9459459 L0,45.9459459 L0,40.5405405 Z M0,27.027027 L54.0540541,27.027027 L54.0540541,32.4324324 L0,32.4324324 L0,27.027027 Z M0,54.0540541 L51.3513514,54.0540541 L51.3513514,59.4594595 L0,59.4594595 L0,54.0540541 Z" id="Shape" fill="#C5CAE9"></path>
            <path d="M32.4324324,100 C30.8108108,100 29.4594595,99.4594595 28.3783784,98.1081081 C26.4864865,95.9459459 26.4864865,92.4324324 28.9189189,90.5405405 L53.2432432,68.9189189 C55.4054054,67.027027 58.9189189,67.027027 60.8108108,69.4594595 C62.7027027,71.6216216 62.7027027,75.1351351 60.2702703,77.027027 L35.9459459,98.6486486 C34.8648649,99.4594595 33.7837838,100 32.4324324,100 Z" id="Path" fill="#F9A825"></path>
            <path d="M81.0810811,0 C87.027027,0 91.8918919,4.86486486 91.8918919,10.8108108 C91.8918919,16.7567568 87.027027,21.6216216 81.0810811,21.6216216 C75.1351351,21.6216216 70.2702703,16.7567568 70.2702703,10.8108108 C70.2702703,4.86486486 75.1351351,0 81.0810811,0 M87.8378378,54.0540541 L68.9189189,54.0540541 C66.7567568,54.0540541 64.8648649,52.1621622 64.8648649,50 L62.1621622,32.4324324 L62.1621622,29.7297297 L46.2162162,16.2162162 L28.9189189,16.2162162 C26.7567568,16.4864865 24.5945946,14.8648649 24.3243243,12.7027027 C24.0540541,10.5405405 25.6756757,8.37837838 27.8378378,8.10810811 L46.7567568,8.10810811 C47.8378378,8.10810811 48.6486486,8.10810811 49.4594595,8.64864865 L65.6756757,19.4594595 C66.2162162,19.7297297 70.5405405,23.7837838 70.5405405,23.7837838 C71.0810811,24.3243243 72.972973,28.6486486 72.972973,29.4594595 L72.972973,45.6756757 L87.8378378,45.6756757 C90,45.6756757 91.8918919,47.5675676 91.8918919,49.7297297 C91.8918919,51.8918919 90,54.0540541 87.8378378,54.0540541 Z M56.7567568,78.3783784 L27.027027,78.3783784 C24.0540541,78.3783784 21.6216216,75.9459459 21.6216216,72.972973 C21.6216216,70 24.0540541,67.5675676 27.027027,67.5675676 L47.2972973,67.5675676 L34.3243243,50 L48.1081081,40.5405405 L61.6216216,70.2702703 C62.7027027,71.8918919 62.7027027,74.0540541 61.6216216,75.6756757 C60.5405405,77.2972973 58.6486486,78.3783784 56.7567568,78.3783784 Z" id="Shape" fill="#FFB74D"></path>
            <path d="M41.8918919,54.0540541 C38.9189189,54.0540541 36.2162162,52.7027027 34.3243243,50.2702703 C31.0810811,46.2162162 32.1621622,40.2702703 36.2162162,37.027027 L57.2972973,21.3513514 C61.3513514,18.1081081 67.2972973,19.1891892 70.5405405,23.2432432 C73.7837838,27.2972973 72.7027027,33.2432432 68.6486486,36.4864865 L47.5675676,52.1621622 C45.9459459,53.5135135 43.7837838,54.0540541 41.8918919,54.0540541 Z" id="Path" fill="#FFB74D"></path>
            <path d="M63.5135135,40.2702703 L72.972973,33.2432432 L72.972973,29.7297297 C72.972973,29.7297297 73.5135135,25.1351351 71.0810811,22.7027027 C68.1081081,19.7297297 62.4324324,17.5675676 62.4324324,17.5675676 L36.2162162,37.027027 C32.1621622,40.2702703 31.0810811,46.2162162 34.3243243,50.2702703 C36.2162162,52.7027027 38.9189189,54.0540541 41.8918919,54.0540541 C43.7837838,54.0540541 45.9459459,53.5135135 47.5675676,52.1621622 L63.5135135,40.2702703 L63.5135135,40.2702703 Z" id="Path" fill="#FF66A1"></path>
            <path d="M34.5945946,50.5405405 L47.2972973,67.5675676 L60.2702703,67.5675676 L51.8918919,49.1891892 L41.6216216,33.2432432 L36.4864865,37.027027 C32.4324324,40.2702703 31.3513514,46.2162162 34.5945946,50.2702703 C34.3243243,50.2702703 34.5945946,50.5405405 34.5945946,50.5405405 Z" id="Path" fill="#546E7A"></path>
        </g>
        <line x1="22.5" y1="125.5" x2="463.5" y2="125.5" id="Line" stroke="#979797" stroke-linecap="square"></line>
    </g>
</svg>