<?xml version="1.0" encoding="UTF-8"?>
<svg width="475px" height="162px" viewBox="0 0 475 162" version="1.1" xmlns="http://www.w3.org/2000/svg" xmlns:xlink="http://www.w3.org/1999/xlink">
    <title>Logo</title>
    <g id="Logo" stroke="none" stroke-width="1" fill="none" fill-rule="evenodd">
        <text id="TailwindCSS-Mobile-U" font-family="InterV_Bold, Inter V" font-size="48" font-weight="bold" letter-spacing="-0.666666667" fill="#222222">
            <tspan x="126" y="69">TailwindCSS </tspan>
            <tspan x="126" y="128">Mobile Utilities</tspan>
        </text>
        <g id="1f4f2" transform="translate(10.000000, 33.000000)" fill-rule="nonzero">
            <path d="M48,96 C48,96 37.3333333,96 37.3333333,85.3333333 L37.3333333,10.6666667 C37.3333333,10.6666667 37.3333333,0 48,0 L85.3333333,0 C85.3333333,0 96,0 96,10.6666667 L96,85.3333333 C96,85.3333333 96,96 85.3333333,96 L48,96 Z" id="Path" fill="#31373D"></path>
            <path d="M42.6666667,13.3333333 L90.6666667,13.3333333 L90.6666667,82.6666667 L42.6666667,82.6666667 L42.6666667,13.3333333 Z M34.6666667,42.6666667 C34.6666667,42.6666667 37.3333333,45.3333333 37.3333333,48 C37.3333333,50.6666667 34.6666667,53.3333333 34.6666667,53.3333333 L21.3333333,66.6666667 C18.6666667,69.3333333 13.3333333,69.3333333 13.3333333,64 L13.3333333,56 L5.33333333,56 C5.33333333,56 0,56 0,50.6666667 L0,45.3333333 C0,40 5.33333333,40 5.33333333,40 L13.3333333,40 L13.3333333,32 C13.3333333,26.6666667 18.6666667,26.6666667 21.3333333,29.3333333 L34.6666667,42.6666667 Z" id="Shape" fill="#55ACEE"></path>
        </g>
    </g>
</svg>